<svg width="88" height="109" viewBox="0 0 88 109" fill="none" xmlns="http://www.w3.org/2000/svg">
<path d="M69.7 45.2L71.9034 40.7117H71.9034L69.7 45.2ZM82.75 56.75L78.5387 59.4453L78.5511 59.4647L78.5637 59.4839L82.75 56.75ZM82.3 92.3L78.1277 89.5447L82.3 92.3ZM67.9 104.6L70.0144 109.131L70.0306 109.123L70.0468 109.116L67.9 104.6ZM13.3 95.3L9.62442 98.6897H9.62442L13.3 95.3ZM7.6 26.15L3.18106 23.8106L7.6 26.15ZM26.35 6.79999L23.9633 2.40638L23.9519 2.41261L23.9404 2.41891L26.35 6.79999ZM70.45 2.14999L69.215 6.99506L69.2702 7.00914L69.3257 7.02195L70.45 2.14999ZM83.65 7.39999L88.1146 9.65106L90.148 5.61816L86.3419 3.18651L83.65 7.39999ZM74.65 25.25L71.8581 29.3979L76.5619 32.5639L79.1146 27.5011L74.65 25.25ZM33.85 27.8L37.3855 31.3355L33.85 27.8ZM25.45 50.45L20.4541 50.2481L19.9375 63.0336L28.9855 53.9855L25.45 50.45ZM59.05 86.45L55.8151 82.6375L55.7861 82.6621L55.7575 82.6871L59.05 86.45ZM59.05 63.65L55.6924 67.3549L55.7529 67.4097L55.8151 67.4625L59.05 63.65ZM33.1 63.8L36.3447 67.6042L36.3767 67.5769L36.4081 67.5492L33.1 63.8ZM32.95 86.3L36.2506 82.5442L32.95 86.3ZM51.4 46.15C57.4087 46.15 62.7447 47.3556 67.4966 49.6883L71.9034 40.7117C65.6553 37.6444 58.7913 36.15 51.4 36.15V46.15ZM67.4966 49.6883C72.2036 51.999 75.8478 55.2408 78.5387 59.4453L86.9614 54.0547C83.2522 48.2592 78.1964 43.8009 71.9034 40.7117L67.4966 49.6883ZM78.5637 59.4839C81.1749 63.4825 82.55 68.2096 82.55 73.85H92.55C92.55 66.4904 90.7251 59.8175 86.9364 54.0161L78.5637 59.4839ZM82.55 73.85C82.55 79.9743 81.0332 85.1449 78.1277 89.5447L86.4723 95.0553C90.5668 88.8551 92.55 81.7256 92.55 73.85H82.55ZM78.1277 89.5447C75.162 94.0356 71.0846 97.5497 65.7532 100.084L70.0468 109.116C76.9154 105.85 82.438 101.164 86.4723 95.0553L78.1277 89.5447ZM65.7856 100.069C60.5218 102.526 54.5559 103.8 47.8 103.8V113.8C55.8441 113.8 63.2782 112.274 70.0144 109.131L65.7856 100.069ZM47.8 103.8C34.1925 103.8 24.141 99.68 16.9756 91.9103L9.62442 98.6897C19.059 108.92 32.0075 113.8 47.8 113.8V103.8ZM16.9756 91.9103C9.79619 84.1254 5.85 72.6568 5.85 56.75H-4.15C-4.15 74.2432 0.20381 88.4746 9.62442 98.6897L16.9756 91.9103ZM5.85 56.75C5.85 45.475 7.98067 36.1173 12.0189 28.4894L3.18106 23.8106C-1.78067 33.1827 -4.15 44.225 -4.15 56.75H5.85ZM12.0189 28.4894C16.0883 20.803 21.6609 15.0853 28.7596 11.1811L23.9404 2.41891C15.0391 7.31466 8.11175 14.497 3.18106 23.8106L12.0189 28.4894ZM28.7367 11.1936C36.0008 7.24769 44.5076 5.2 54.4 5.2V-4.8C43.0924 -4.8 32.8993 -2.44769 23.9633 2.40638L28.7367 11.1936ZM54.4 5.2C59.61 5.2 64.5435 5.80431 69.215 6.99506L71.685 -2.69508C66.1565 -4.10432 60.39 -4.8 54.4 -4.8V5.2ZM69.3257 7.02195C74.1024 8.12426 77.9421 9.68662 80.9581 11.6135L86.3419 3.18651C82.1579 0.513364 77.1976 -1.42427 71.5743 -2.72196L69.3257 7.02195ZM79.1854 5.14893L70.1854 22.9989L79.1146 27.5011L88.1146 9.65106L79.1854 5.14893ZM77.4419 21.1021C71.2253 16.9178 63.6357 15 55 15V25C62.1643 25 67.6747 26.5822 71.8581 29.3979L77.4419 21.1021ZM55 15C45.0715 15 36.6435 17.9354 30.3145 24.2645L37.3855 31.3355C41.4565 27.2645 47.1285 25 55 25V15ZM30.3145 24.2645C23.9556 30.6233 20.8869 39.5362 20.4541 50.2481L30.4459 50.6519C30.8131 41.5638 33.3444 35.3767 37.3855 31.3355L30.3145 24.2645ZM28.9855 53.9855C34.0146 48.9564 41.2551 46.15 51.4 46.15V36.15C39.3449 36.15 29.2854 39.5435 21.9145 46.9145L28.9855 53.9855ZM46.45 95.65C52.5795 95.65 58.0394 93.9781 62.3425 90.2129L55.7575 82.6871C53.6606 84.5219 50.7205 85.65 46.45 85.65V95.65ZM62.2849 90.2625C66.8352 86.4017 69 81.1379 69 75.05H59C59 78.5621 57.8648 80.8983 55.8151 82.6375L62.2849 90.2625ZM69 75.05C69 68.9621 66.8352 63.6983 62.2849 59.8375L55.8151 67.4625C57.8648 69.2017 59 71.5379 59 75.05H69ZM62.4076 59.9451C58.0735 56.0173 52.4677 54.3 46.15 54.3V64.3C50.6323 64.3 53.6265 65.4827 55.6924 67.3549L62.4076 59.9451ZM46.15 54.3C39.8496 54.3 34.2565 56.1114 29.7919 60.0508L36.4081 67.5492C38.7435 65.4886 41.8504 64.3 46.15 64.3V54.3ZM29.8553 59.9958C25.3045 63.8774 23 69.0355 23 75.05H33C33 71.8645 34.0955 69.5226 36.3447 67.6042L29.8553 59.9958ZM23 75.05C23 81.0111 25.2127 86.1568 29.6494 90.0558L36.2506 82.5442C34.0873 80.6432 33 78.2889 33 75.05H23ZM29.6494 90.0558C34.106 93.9722 39.905 95.65 46.45 95.65V85.65C41.595 85.65 38.394 84.4278 36.2506 82.5442L29.6494 90.0558Z" fill="white"/>
</svg>
